<svg width="169" height="48" viewBox="0 0 169 48" fill="none" xmlns="http://www.w3.org/2000/svg">
<path fill-rule="evenodd" clip-rule="evenodd" d="M10.1562 19.9069C17.7852 16.8038 19.0774 8.73864 18.1082 1.33218C18.1082 1.0687 18.307 0.87842 18.4934 0.951606C25.7994 5.15251 34 14.3301 34 28.0891C34 38.6426 27.0543 47.9666 16.9651 47.9666C8.01903 48.4496 0.427267 40.282 0.0172378 29.7432C-0.256115 22.7612 2.73834 16.1598 7.8078 12.5297C8.0066 12.3833 8.26753 12.5297 8.26753 12.7932C8.36693 14.213 8.68999 17.7699 10.0195 19.9069H10.1437H10.1562Z" fill="white"/>
<path fill-rule="evenodd" clip-rule="evenodd" d="M56.3347 39.7536L56.8806 38.982L58.5927 45.4961L58.3694 45.7632C57.0791 47.2026 55.1312 47.9297 52.6375 47.9297H52.5382C50.2678 47.9297 48.4937 47.1581 47.253 45.7187C46.0247 44.2497 45.3796 42.0387 45.3796 39.2491V21.5021H41V14.3351H45.3796V5.699H52.1164V14.3351H57.4637V21.5021H52.0792V37.513C52.0792 38.2549 52.2405 40.6142 54.1263 40.6142C55.094 40.6142 55.9997 40.1839 56.3347 39.7239V39.7684V39.7536ZM59.8954 47.1877V14.3647H66.6323V47.1877H59.8954ZM63.2328 0.950645C65.466 0.950645 67.2774 3.11708 67.2774 5.78803C67.2774 8.45898 65.466 10.6254 63.2328 10.6254C61.012 10.6254 59.2006 8.47382 59.1882 5.81771C59.1882 3.17644 61.0368 0.935806 63.2328 0.935806V0.950645ZM84.7461 13.5486C90.5772 13.5486 93.7905 17.3473 93.7905 24.2769V47.1432H87.0537V26.2208C86.9296 22.4963 85.4284 20.7899 82.2523 20.7899C79.3988 20.7899 77.1035 22.8821 75.9373 24.6627V47.1432H69.2004V14.3944H75.9373V17.8815C77.8851 15.6409 80.9868 13.6228 84.7461 13.6228V13.5486ZM116.209 17.7776V2.36031H122.946V47.2323H116.209V43.8194C114.125 46.4458 111.234 47.9445 108.207 47.9594C100.85 47.9594 95.9245 41.0594 95.9245 30.7911C95.9245 20.4783 100.85 13.5783 108.207 13.5783C111.247 13.5931 114.138 15.1067 116.209 17.7628V17.7776ZM116.209 24.7221C114.683 22.3479 112.351 20.9234 109.857 20.8492C105.676 20.8492 102.885 24.8408 102.885 30.8059C102.885 36.7414 105.676 40.733 109.857 40.733C112.289 40.733 114.944 39.1897 116.209 36.9343V24.7221ZM138.703 13.5931C146.68 13.5931 152.214 20.9531 152.214 31.4143V33.6253H131.83C132.512 38.2401 135.552 41.1781 139.708 41.1781C142.338 41.1781 145.216 39.8278 146.866 37.8394L147.325 37.3794L150.539 42.8846L150.216 43.2407C147.177 46.4607 143.219 48.1523 139.162 47.9742C130.738 47.9742 124.807 40.8813 124.807 30.7614C124.534 21.606 130.527 13.9196 138.182 13.608C138.368 13.5931 138.554 13.5931 138.74 13.5931H138.703ZM131.805 27.5414H145.638C145.254 22.615 141.842 20.3744 138.703 20.3744C133.976 20.3744 132.189 24.6331 131.805 27.5859V27.5414ZM168.516 13.5931H169V21.7247L168.417 21.606C167.933 21.4873 167.313 21.4131 166.705 21.4131C164.534 21.4131 161.519 23.2382 160.39 25.1673V47.1432H153.653V14.3499H160.427V18.0002C162.66 15.2105 165.613 13.5783 168.529 13.5783L168.516 13.5931Z" fill="white"/>
</svg>
